<?xml version="1.0" encoding="utf-8"?>
<!-- Generator: Adobe Illustrator 19.0.0, SVG Export Plug-In . SVG Version: 6.00 Build 0)  -->
<svg version="1.1" id="图层_1" xmlns="http://www.w3.org/2000/svg" xmlns:xlink="http://www.w3.org/1999/xlink" x="0px" y="0px"
	 viewBox="0 0 90 64" style="enable-background:new 0 0 90 64;" xml:space="preserve">
<style type="text/css">
	.st0{fill:#000;}
</style>
<g id="XMLID_14_">
	<g id="XMLID_43_">
		<path id="XMLID_44_" class="st0" d="M19.1,44.5c-0.2-1.2-0.5-2.2-0.9-3.1c-0.4-0.9-0.9-1.6-1.4-2.1s-1-0.9-1.5-1.2
			c-0.5-0.3-1-0.4-1.5-0.4c0.4-0.4,0.7-0.8,1-1.2c0.3-0.4,0.6-0.7,0.9-1.1c0.3-0.4,0.5-0.9,0.6-1.4c0.1-0.5,0.2-1.1,0.2-1.8
			c0-1.6,0.2-3.1,0.7-4.4c0.5-1.3,1-2.5,1.5-3.6c0.5-1.1,1.1-2,1.5-2.9c0.5-0.9,0.7-1.7,0.7-2.4c0-0.6,0-1,0.1-1.2
			c0.1-0.3,0.1-0.5,0.1-0.7c0-0.2-0.1-0.4-0.3-0.6c-0.2-0.2-0.5-0.6-1-1.1c1.2,0,2.1,0.2,2.9,0.6c0.8,0.4,1.4,0.9,1.9,1.5
			c0.5,0.6,0.8,1.3,1,2.1c0.2,0.8,0.3,1.5,0.3,2.3c0,0.6,0,1.3,0,2c0,0.7,0.1,1.5,0.2,2.3c0.1,0.8,0.3,1.7,0.6,2.6
			c0.3,0.9,0.7,2,1.2,3.1c0.6,1.5,1.1,2.7,1.4,3.7c0.3,0.9,0.3,1.7,0,2.3c-0.3,0.6-0.9,1.1-1.8,1.4c-0.9,0.4-2.3,0.8-4.1,1.2
			c-0.3-0.7-0.4-1.2-0.4-1.6c0-0.4-0.1-0.8-0.1-1.1c0-0.4-0.1-0.7-0.2-1.1c-0.1-0.4-0.4-0.8-0.8-1.4c0.6,0.5,1.1,0.8,1.5,1
			c0.4,0.2,0.7,0.4,1,0.4s0.6,0,0.9-0.1c0.3-0.1,0.6-0.3,1.1-0.5c-0.1-0.3-0.2-0.6-0.5-1c-0.2-0.4-0.5-0.8-0.7-1.3
			c-0.2-0.5-0.5-1-0.7-1.5c-0.2-0.5-0.4-1.1-0.5-1.7c-0.4,0.1-0.8,0.2-1.3,0.3c-0.5,0.1-0.9,0.3-1.4,0.6c-0.5,0.3-0.9,0.7-1.3,1.2
			c-0.4,0.6-0.8,1.3-1.2,2.3V44.5z M19.9,28.9c0-0.1,0.2-0.2,0.5-0.3c0.3-0.1,0.6-0.3,1-0.4c0.4-0.1,0.8-0.3,1.2-0.4
			c0.4-0.1,0.7-0.2,0.9-0.3c0.1-0.2,0.1-0.5,0-1c-0.1-0.5-0.2-1-0.2-1.6c-0.1-0.6-0.1-1.2-0.2-1.8c0-0.6,0.1-1.1,0.2-1.6
			c-0.2,0.2-0.4,0.5-0.6,0.9c-0.2,0.4-0.5,0.9-0.7,1.5c-0.3,0.6-0.5,1.1-0.8,1.7c-0.3,0.6-0.5,1.1-0.7,1.6c-0.2,0.5-0.4,0.9-0.5,1.2
			C19.9,28.8,19.8,28.9,19.9,28.9z"/>
		<path id="XMLID_47_" class="st0" d="M38.8,15.2c-0.1,0,0,0,0.3,0c0.3,0,0.6,0,1,0.1s0.8,0.2,1.2,0.4c0.4,0.2,0.6,0.5,0.8,0.8
			c0.1,0.3,0.2,0.6,0.2,0.9c0,0.3,0.1,0.5,0.1,0.7s0,0.5-0.1,0.7c-0.1,0.3-0.1,0.5-0.2,0.9c-0.1,0.8-0.5,1.4-1.1,1.9
			c-0.6,0.5-1.2,0.8-1.9,1c-0.8,0.3-1.6,0.5-2.5,0.6v11.2v11.2c-0.2-1-0.6-2-1-2.9c-0.4-0.9-0.9-1.7-1.4-2.4c-0.5-0.7-1-1.3-1.4-1.7
			c-0.4-0.4-0.8-0.7-1.1-0.7c0.4-0.3,0.8-0.7,1-1.1s0.5-0.9,0.6-1.3c0.2-0.4,0.3-0.8,0.3-1.2c0-0.3,0.1-0.6,0.1-0.7
			c0-0.5,0-0.9,0-1.2c0-0.3,0-0.5,0-0.8c0-0.3,0-0.7,0-1.2s0-1.3,0-2.3c0-1.2-0.1-2.1-0.2-2.6c-0.2-0.6-0.4-1-0.6-1.2
			c-0.2-0.3-0.5-0.4-0.8-0.3c0.1-0.1,0.3-0.2,0.4-0.4c0.1-0.1,0.3-0.2,0.5-0.4c0.2-0.1,0.4-0.3,0.6-0.5c-0.2-0.1-0.5-0.3-0.9-0.5
			s-0.8-0.5-1.2-0.7c-0.4-0.3-0.8-0.5-1.2-0.8c-0.4-0.3-0.7-0.5-0.8-0.6c-0.3-0.3-0.8-0.4-1.3-0.4c-0.5,0-1.1,0-1.6,0.1
			c-0.5,0-1,0-1.4,0c-0.4-0.1-0.7-0.3-0.8-0.8c0.4,0.3,0.7,0.3,1.2,0.1c0.4-0.2,0.9-0.5,1.3-0.8c0.5-0.3,1-0.5,1.5-0.7
			c0.5-0.2,1.1-0.1,1.7,0.2c1.4,0.9,2.6,1.5,3.7,1.8c1.1,0.3,2.1,0.5,2.9,0.4c0.8-0.1,1.5-0.3,2-0.6c0.5-0.3,0.9-0.8,1.1-1.2
			c0.2-0.5,0.2-1,0.1-1.5C39.7,16.1,39.3,15.6,38.8,15.2z"/>
		<path id="XMLID_49_" class="st0" d="M44.7,21.4c0-0.1,0,0,0,0.3c-0.1,0.2-0.1,0.5-0.1,0.9c0,0.3,0,0.7,0,1
			c0.1,0.3,0.3,0.6,0.6,0.7c0.3,0.1,0.6,0.4,0.8,0.6c0.2,0.3,0.3,0.5,0.5,0.8c0.1,0.3,0.2,0.7,0.3,1v10.8c0.4,0.1,0.8,0.1,1.4,0.1
			c0.5-0.1,1.1-0.2,1.8-0.4c0.7-0.2,1.5-0.6,2.5-1.1c0.9-0.5,1.6-1.3,2.1-2.3c0.4-1,0.7-2,0.7-3c0-1.1-0.2-2.1-0.5-3
			c-0.4-1-0.8-1.7-1.5-2.3c-0.7-0.5-1.4-1.1-2.1-1.6c-0.8-0.5-1.6-1-2.6-1.4c-1-0.4-2.1-0.9-3.5-1.2c-1.3-0.4-2.8-0.7-4.5-0.9
			c-1.8-0.2-3.3-0.6-4.6-1.1c-1.3-0.5-2.4-1-3.3-1.4c-1.1-0.5-2-1.1-2.8-1.7c1.7,0.5,3.5,0.9,5.2,1.4c1.5,0.4,3.1,0.8,4.7,1.1
			c1.7,0.4,3.2,0.7,4.6,0.9c0.9,0.1,1.9,0.3,3,0.5c1.1,0.2,2.1,0.5,3.1,0.8c1,0.3,2,0.8,3,1.3c1,0.5,1.8,1.2,2.5,2
			c0.7,0.8,1.3,1.7,1.7,2.8c0.4,1.1,0.6,2.4,0.5,3.9c-0.1,1.5-0.3,2.8-0.7,3.8c-0.4,1-0.8,1.9-1.3,2.6c-0.5,0.7-1.1,1.3-1.8,1.7
			c-0.7,0.4-1.4,0.8-2.1,1c-0.7,0.3-1.4,0.5-2.1,0.6c-0.7,0.2-1.3,0.4-1.9,0.5c-0.1,0-0.2,0-0.2,0.1c0,0-0.1,0.1-0.2,0.1
			c-0.1,0-0.2,0.1-0.3,0.1c-0.1,0-0.3,0.1-0.6,0.1v5c-0.2-0.9-0.5-1.8-0.8-2.7c-0.4-0.9-0.8-1.8-1.3-2.6c-0.5-0.8-1-1.4-1.5-1.9
			c-0.5-0.5-1-0.7-1.3-0.7c0.2-0.1,0.4-0.2,0.7-0.5c0.3-0.2,0.5-0.5,0.7-0.8c0.2-0.3,0.4-0.7,0.6-1.1c0.2-0.4,0.2-0.8,0.2-1.2
			c0-1.3-0.1-2.3-0.2-2.9c-0.1-0.7-0.2-1.2-0.4-1.6s-0.3-0.8-0.4-1.1c-0.1-0.3-0.2-0.8-0.2-1.3c-0.2,0.1-0.5,0.1-0.7,0
			c-0.2,0-0.4-0.1-0.6-0.2c-0.2-0.1-0.4-0.3-0.5-0.6c0.5-0.2,0.9-0.6,1.1-1c0.3-0.4,0.5-1,0.6-1.8c0.1-0.7,0.3-1.2,0.5-1.5
			c0.2-0.4,0.4-0.6,0.6-0.8c0.2-0.2,0.3-0.3,0.5-0.4C44.6,21.5,44.7,21.5,44.7,21.4z"/>
		<path id="XMLID_51_" class="st0" d="M62.1,29.2c0-0.4,0.3-0.9,0.8-1.5c0.5-0.6,1.3-1.1,2.3-1.4c0.6-0.2,1-0.5,1.2-0.9
			c0.3-0.4,0.4-0.8,0.4-1.3c0-0.5-0.1-0.9-0.3-1.4c-0.2-0.5-0.5-0.9-0.8-1.2c-0.2-0.2-0.6-0.2-1.2-0.1c-0.6,0.1-1.2,0.4-1.8,0.8
			c-0.6,0.4-1,0.8-1.4,1.4c-0.3,0.6-0.3,1.2,0.1,1.8c-0.5-0.5-0.8-0.9-1-1.3c-0.1-0.3-0.2-0.6-0.1-0.9c0.1-0.2,0.2-0.5,0.3-0.6
			c0.2-0.2,0.3-0.4,0.4-0.6c0.1-0.2,0.1-0.4,0.1-0.7c0-0.3-0.3-0.6-0.6-1c-0.5-0.5-1-0.9-1.3-1.1c-0.4-0.2-0.7-0.3-0.9-0.3
			c-0.3,0-0.5,0.2-0.6,0.5c-0.2,0.3-0.3,0.6-0.5,1.1c0-0.9,0.2-1.5,0.5-1.9c0.3-0.4,0.7-0.6,1.2-0.7c0.5-0.1,1.1-0.1,1.7,0.1
			c0.6,0.2,1.2,0.4,1.9,0.6c0.6,0.2,1.2,0.3,1.6,0.1c0.4-0.2,0.9-0.4,1.3-0.7c0.4-0.3,0.9-0.5,1.5-0.7c0.5-0.2,1.2-0.1,2.1,0.2
			c0.8,0.3,1.5,0.6,1.9,1c0.4,0.4,0.8,0.8,0.9,1.3c0.2,0.5,0.3,1,0.2,1.5c0,0.5-0.1,1-0.2,1.5c-0.2-0.2-0.4-0.4-0.5-0.5
			c-0.1-0.1-0.2-0.2-0.3-0.3c-0.1-0.1-0.2-0.2-0.4-0.3c-0.1-0.1-0.3-0.3-0.6-0.6c-0.2-0.2-0.4-0.3-0.7-0.4c-0.3,0-0.6-0.1-1.1-0.1
			c0.3,0.3,0.5,0.6,0.8,1.1c0.3,0.4,0.5,0.9,0.6,1.5c0.1,0.6,0.2,1.1,0.1,1.7c-0.1,0.6-0.4,1.1-0.9,1.7c-0.4,0.4-0.8,0.7-1.1,0.9
			c-0.4,0.2-0.7,0.3-0.9,0.4c-0.3,0.1-0.5,0.2-0.6,0.2c-0.1,0.1-0.2,0.1-0.2,0.3c0.8,0,1.5,0.3,2.1,0.8c0.7,0.5,1.2,1.2,1.7,1.9
			c0.4,0.8,0.8,1.6,1,2.5c0.2,0.9,0.3,1.7,0.2,2.3c-0.1,0.5,0,1,0.2,1.3c0.2,0.3,0.4,0.7,0.6,1c0.2,0.4,0.3,0.8,0.4,1.2
			s-0.1,1.1-0.4,1.8c-0.4-1-0.8-1.6-1.1-1.8c-0.4-0.2-0.8-0.3-1.4-0.2c-0.6,0.1-1.3,0.3-2.3,0.5C65.9,40,64.7,40,63.2,40
			c-0.3,0-0.7-0.1-1.1-0.2c-0.4-0.1-0.8-0.3-1.1-0.6c-0.4-0.2-0.7-0.5-0.9-0.8c-0.3-0.3-0.4-0.6-0.4-0.9c0.7,0.3,1.2,0.4,1.4,0.1
			c0.3-0.3,0.3-0.6,0-0.9c-0.3-0.4-0.6-0.4-0.9-0.3c-0.3,0.2-0.6,0.4-0.9,0.7c-0.3,0.3-0.6,0.6-1,0.8c-0.3,0.2-0.7,0.2-1.1-0.1
			c0.7-0.4,1.3-0.9,1.8-1.5c0.4-0.6,0.8-1.2,1.2-1.7c0.3-0.6,0.7-1.1,1.1-1.5c0.4-0.4,1-0.7,1.7-0.8c-0.5,0.4-0.8,0.8-0.9,1.2
			c-0.1,0.4-0.1,0.6-0.1,0.7c0,0.2,0,0.5,0.1,0.8c0.1,0.3,0.3,0.6,0.5,1c0.2,0.3,0.6,0.6,1,0.8s0.9,0.3,1.5,0.3
			c1.4,0,2.3-0.5,2.7-1.4c0.4-0.9,0.3-2.2-0.2-3.9c-0.2-0.7-0.5-1.2-0.9-1.6c-0.4-0.4-0.8-0.6-1.3-0.8c-0.5-0.2-1-0.3-1.6-0.3
			C63.1,29.2,62.6,29.2,62.1,29.2z"/>
	</g>
	<g id="XMLID_18_">
		<path id="XMLID_19_" class="st0" d="M20,48.3c0,0.1,0,0.1-0.1,0.2l-2.5,4.5c-0.1,0.2-0.2,0.2-0.3,0.2c-0.2,0-0.4-0.1-0.4-0.4
			l0-1.6l-1,1.8c-0.1,0.2-0.2,0.2-0.3,0.2c-0.2,0-0.4-0.1-0.4-0.4l-0.1-4.4c0-0.3,0.1-0.4,0.4-0.4c0.2,0,0.4,0.1,0.4,0.4l0.1,3.2
			l1-1.8l0-1.4c0-0.3,0.1-0.4,0.4-0.4c0.2,0,0.4,0.1,0.4,0.4l0.1,3.2l1.9-3.3c0.1-0.1,0.2-0.2,0.3-0.2c0.1,0,0.2,0,0.3,0.1
			S20,48.2,20,48.3z"/>
		<path id="XMLID_21_" class="st0" d="M26,48.3c0,0.1,0,0.1-0.1,0.2l-2.5,4.5c-0.1,0.2-0.2,0.2-0.3,0.2c-0.2,0-0.4-0.1-0.4-0.4
			l0-1.6l-1,1.8c-0.1,0.2-0.2,0.2-0.3,0.2c-0.2,0-0.4-0.1-0.4-0.4l-0.1-4.4c0-0.3,0.1-0.4,0.4-0.4c0.2,0,0.4,0.1,0.4,0.4l0.1,3.2
			l1-1.8l0-1.4c0-0.3,0.1-0.4,0.4-0.4c0.2,0,0.4,0.1,0.4,0.4l0.1,3.2l1.9-3.3c0.1-0.1,0.2-0.2,0.3-0.2c0.1,0,0.2,0,0.3,0.1
			S26,48.2,26,48.3z"/>
		<path id="XMLID_23_" class="st0" d="M32,48.3c0,0.1,0,0.1-0.1,0.2l-2.5,4.5c-0.1,0.2-0.2,0.2-0.3,0.2c-0.2,0-0.4-0.1-0.4-0.4
			l0-1.6l-1,1.8c-0.1,0.2-0.2,0.2-0.3,0.2c-0.2,0-0.4-0.1-0.4-0.4l-0.1-4.4c0-0.3,0.1-0.4,0.4-0.4c0.2,0,0.4,0.1,0.4,0.4l0.1,3.2
			l1-1.8l0-1.4c0-0.3,0.1-0.4,0.4-0.4c0.2,0,0.4,0.1,0.4,0.4l0.1,3.2l1.9-3.3c0.1-0.1,0.2-0.2,0.3-0.2c0.1,0,0.2,0,0.3,0.1
			S32,48.2,32,48.3z"/>
		<path id="XMLID_25_" class="st0" d="M34.8,52.5c0,0.2-0.1,0.3-0.2,0.4c-0.1,0.1-0.3,0.2-0.4,0.2c-0.2,0-0.3,0-0.4-0.2
			s-0.1-0.2-0.1-0.4c0-0.2,0.1-0.3,0.2-0.4s0.3-0.2,0.4-0.2c0.1,0,0.3,0,0.4,0.1C34.8,52.3,34.8,52.4,34.8,52.5z"/>
		<path id="XMLID_27_" class="st0" d="M43.4,48.8c0,0-0.4,1.4-1.1,4.1c0,0.2-0.2,0.3-0.3,0.3c-0.3,0-0.4-0.1-0.4-0.4
			c0,0,0-0.1,0-0.2c-0.5,0.4-1.1,0.6-1.7,0.6c-0.6,0-1-0.2-1.4-0.5c-0.4-0.3-0.5-0.8-0.5-1.3c0-0.2,0-0.4,0.1-0.6
			c0.2-0.8,0.7-1.4,1.3-2c0.7-0.5,1.4-0.8,2.2-0.8c0.7,0,1.3,0.2,1.6,0.6C43.4,48.6,43.4,48.7,43.4,48.8z M42.6,48.9
			c-0.2-0.2-0.5-0.2-0.9-0.2c-0.6,0-1.2,0.2-1.8,0.7c-0.5,0.4-0.9,1-1.1,1.6c0,0.2-0.1,0.3-0.1,0.4c0,0.3,0.1,0.6,0.3,0.8
			c0.2,0.2,0.5,0.3,0.8,0.3c0.5,0,0.9-0.2,1.4-0.5s0.7-0.7,0.8-1.2L42.6,48.9z"/>
		<path id="XMLID_30_" class="st0" d="M49,52c0,0.1,0,0.2-0.1,0.3c-0.6,0.6-1.2,0.9-2,0.9c-0.5,0-1-0.2-1.3-0.5
			c-0.3-0.3-0.5-0.8-0.5-1.3c0-0.2,0-0.4,0.1-0.6l0.6-2.2h-0.6c-0.3,0-0.4-0.1-0.4-0.4s0.1-0.4,0.4-0.4H46l0.5-2
			c0-0.2,0.2-0.3,0.4-0.3c0.3,0,0.4,0.1,0.4,0.4c0,0-0.2,0.7-0.5,1.9h1.8c0.3,0,0.4,0.1,0.4,0.4s-0.1,0.4-0.4,0.4h-2L45.9,51
			c0,0.1-0.1,0.3-0.1,0.4c0,0.3,0.1,0.6,0.3,0.7c0.2,0.2,0.4,0.3,0.8,0.3c0.5,0,1-0.2,1.4-0.6c0.1-0.1,0.2-0.1,0.3-0.1
			c0.1,0,0.2,0,0.3,0.1S49,51.9,49,52z"/>
		<path id="XMLID_32_" class="st0" d="M55.9,46c0,0,0,0.1,0,0.1l-1.8,6.8c0,0.2-0.2,0.3-0.3,0.3c-0.3,0-0.4-0.1-0.4-0.4
			c0,0,0-0.1,0-0.2c-0.5,0.4-1.1,0.6-1.7,0.6c-0.5,0-1-0.2-1.4-0.5c-0.4-0.3-0.5-0.8-0.5-1.3c0-0.2,0-0.4,0.1-0.6
			c0.2-0.8,0.7-1.4,1.3-2c0.7-0.5,1.4-0.8,2.2-0.8c0.4,0,0.8,0.1,1.1,0.3l0.6-2.2c0-0.2,0.2-0.3,0.3-0.3
			C55.8,45.7,55.9,45.8,55.9,46z M54.3,48.9c-0.2-0.2-0.5-0.2-0.9-0.2c-0.6,0-1.2,0.2-1.8,0.7s-0.9,1-1.1,1.6c0,0.2-0.1,0.3-0.1,0.4
			c0,0.3,0.1,0.6,0.3,0.8c0.2,0.2,0.5,0.3,0.8,0.3c0.5,0,0.9-0.2,1.4-0.5s0.7-0.7,0.8-1.2L54.3,48.9z"/>
		<path id="XMLID_35_" class="st0" d="M61.8,47.1c0,0.1-0.1,0.2-0.2,0.3l-2.7,2c0.5,0.1,0.9,0.3,1.2,0.6c0.3,0.3,0.4,0.7,0.4,1.2
			c0,0.8-0.3,1.5-0.9,2.1s-1.3,0.9-2.1,0.9c-0.4,0-0.8-0.1-1.2-0.3c-0.3-0.2-0.6-0.5-0.7-1c0,0,0-0.1,0-0.1c0-0.2,0.1-0.4,0.4-0.4
			c0.2,0,0.3,0.1,0.3,0.3c0.2,0.5,0.6,0.8,1.2,0.8c0.6,0,1.1-0.2,1.6-0.7s0.7-1,0.7-1.6c0-0.7-0.4-1.1-1.2-1.1c-0.3,0-0.6,0.1-1,0.3
			c-0.4,0.2-0.6,0.3-0.6,0.3c-0.1,0-0.2,0-0.3-0.1c-0.1-0.1-0.1-0.2-0.1-0.3c0-0.1,0.1-0.2,0.2-0.3l3.5-2.5h-2.7
			c-0.3,0-0.4-0.1-0.4-0.4s0.1-0.4,0.4-0.4h3.8C61.7,46.8,61.8,46.9,61.8,47.1z"/>
		<path id="XMLID_37_" class="st0" d="M64.6,52.5c0,0.2-0.1,0.3-0.2,0.4c-0.1,0.1-0.3,0.2-0.4,0.2c-0.2,0-0.3,0-0.4-0.2
			s-0.1-0.2-0.1-0.4c0-0.2,0.1-0.3,0.2-0.4s0.3-0.2,0.4-0.2c0.1,0,0.3,0,0.4,0.1C64.5,52.3,64.6,52.4,64.6,52.5z"/>
		<path id="XMLID_39_" class="st0" d="M73.6,48.9c0,0.1,0,0.2-0.1,0.3c-0.1,0.1-0.2,0.1-0.3,0.1c-0.1,0-0.2,0-0.3-0.1
			c-0.4-0.4-0.9-0.5-1.4-0.5c-0.5,0-1,0.1-1.5,0.4c-0.5,0.3-0.9,0.6-1.1,1.1c-0.2,0.3-0.3,0.6-0.3,1c0,0.5,0.2,0.8,0.5,1
			c0.3,0.2,0.7,0.3,1.2,0.3c0.6,0,1.2-0.2,1.8-0.6c0.1,0,0.1-0.1,0.2-0.1c0.1,0,0.2,0,0.3,0.1c0.1,0.1,0.1,0.2,0.1,0.3
			c0,0.1-0.1,0.2-0.2,0.3c-0.3,0.2-0.6,0.4-1.1,0.5c-0.4,0.1-0.8,0.2-1.2,0.2c-0.7,0-1.2-0.2-1.7-0.5c-0.5-0.4-0.8-0.9-0.8-1.6
			c0-0.9,0.4-1.6,1.2-2.3c0.8-0.6,1.6-0.9,2.5-0.9c0.9,0,1.5,0.3,2,0.8C73.6,48.8,73.6,48.8,73.6,48.9z"/>
		<path id="XMLID_41_" class="st0" d="M79.1,49.7c0,0.2,0,0.4-0.1,0.6l-0.7,2.6c0,0.2-0.2,0.3-0.3,0.3c-0.3,0-0.4-0.1-0.4-0.4
			c0,0,0-0.1,0-0.1l0.7-2.6c0-0.1,0.1-0.3,0.1-0.4c0-0.3-0.1-0.6-0.3-0.7s-0.5-0.3-0.8-0.3c-0.4,0-0.9,0.2-1.3,0.5
			c-0.4,0.3-0.6,0.7-0.8,1.1l-0.7,2.6c0,0.2-0.2,0.3-0.4,0.3c-0.3,0-0.4-0.1-0.4-0.4c0,0,0-0.1,0-0.1l1.2-4.5c0-0.2,0.2-0.3,0.3-0.3
			c0.3,0,0.4,0.1,0.4,0.4c0,0,0,0.1,0,0.1c0.5-0.3,1-0.5,1.5-0.5c0.5,0,1,0.2,1.3,0.5C78.9,48.7,79.1,49.1,79.1,49.7z"/>
	</g>
</g>
</svg>
