<?xml version="1.0" encoding="utf-8"?>
<!-- Generator: Adobe Illustrator 19.0.0, SVG Export Plug-In . SVG Version: 6.00 Build 0)  -->
<svg version="1.1" id="图层_1" xmlns="http://www.w3.org/2000/svg" xmlns:xlink="http://www.w3.org/1999/xlink" x="0px" y="0px"
	 viewBox="0 0 160 48" style="enable-background:new 0 0 160 48;" xml:space="preserve">
<style type="text/css">
	.st0{opacity:0.88;fill:#5350C2;stroke:#FFFFFF;stroke-miterlimit:10;enable-background:new    ;}
	.st1{opacity:0.88;fill:#FF0000;stroke:#FFFFFF;stroke-miterlimit:10;enable-background:new    ;}
	.st2{fill:#FF0000;}
</style>
<g id="XMLID_40_">
	<g id="XMLID_41_">
		<g id="XMLID_43_">
			<path id="XMLID_45_" class="st0" d="M49.9,41L40,23.8L28.8,4.4c-1-1.7-3.5-1.7-4.5,0L3.2,41c-1,1.7,0.2,3.9,2.2,3.9H11
				c0-0.1,0.1-0.2,0.2-0.3l13.9-24.1c0.7-1.1,2.3-1.1,2.9,0l7.4,12.8l6.6,11.3c0.1,0.1,0.1,0.2,0.2,0.3h5.6
				C49.7,44.8,50.9,42.7,49.9,41z"/>
			<path id="XMLID_44_" class="st1" d="M16.2,43.2L25.6,27c0.4-0.8,1.5-0.8,2,0l5,8.6l4.4,7.6c0.4,0.8-0.1,1.7-1,1.7H17.2
				C16.3,44.9,15.8,43.9,16.2,43.2z"/>
		</g>
	</g>
	<g id="图层_2_1_">
	</g>
</g>
<g id="XMLID_72_">
	<path id="XMLID_73_" d="M80,24h-1.5l-1.1-2.9H73L72,24h-1.5l4-10.6H76L80,24z M77,19.9l-1.6-4.4c-0.1-0.1-0.1-0.4-0.2-0.7h0
		c-0.1,0.3-0.1,0.6-0.2,0.7l-1.6,4.4H77z"/>
	<path id="XMLID_76_" d="M86.9,14.6h-3.1V24h-1.4v-9.4h-3v-1.2h7.5V14.6z"/>
	<path id="XMLID_78_" d="M88.5,24V13.4h3c1.6,0,2.9,0.5,4,1.4s1.6,2.2,1.6,3.8c0,1.6-0.5,3-1.6,3.9S93.1,24,91.4,24H88.5z
		 M89.9,14.6v8.2h1.5c1.3,0,2.4-0.4,3.1-1.1s1.1-1.8,1.1-3.1s-0.4-2.3-1.2-3s-1.8-1-3.1-1H89.9z"/>
	<path id="XMLID_81_" d="M98.1,17.8h4.4c0.5-0.9,1-1.8,1.3-2.6l1,0.5c-0.4,0.7-0.8,1.4-1.3,2.1h2.4v0.9h-7.8V17.8z M98.4,14.2h3.4
		c-0.2-0.4-0.4-0.9-0.8-1.5l0.9-0.4c0.4,0.7,0.7,1.2,0.9,1.6l-0.7,0.3h3.5v0.9h-7.3V14.2z M99.1,20.2h5.9v5.6h-1v-1h-3.9v1h-1V20.2z
		 M99.3,15.8l0.8-0.5c0.5,0.6,0.9,1.3,1.2,1.9l-0.9,0.5C100.2,17.2,99.8,16.6,99.3,15.8z M104,21.1h-3.9v2.7h3.9V21.1z M111.6,21.3
		c0,1.6-0.6,2.4-1.8,2.5c-0.5,0.1-1.1,0-1.9-0.1c0-0.3-0.1-0.7-0.2-1.2c0.7,0.1,1.2,0.2,1.7,0.2c0.8,0,1.2-0.6,1.1-1.7
		c0-1-0.7-2-2.1-3c0.6-1.2,1.2-2.5,1.8-3.9h-2.8v11.7h-1V13.1h4.9v1.1c-0.4,0.9-0.9,2.1-1.7,3.6C110.9,18.8,111.6,20,111.6,21.3z"/>
	<path id="XMLID_88_" d="M111.9,18.6l0.6-0.8c0.8,0.4,1.5,0.9,2.3,1.4c-0.3,0.3-0.5,0.6-0.7,0.9C113.4,19.6,112.7,19.1,111.9,18.6z
		 M112.1,13.7h3.8v-1.4h1v1.4h3.8v-1.4h1v1.4h3.7v0.9h-3.7v1h-1v-1h-3.8v1.1h-1v-1.1h-3.8V13.7z M112.2,25.4
		c0.6-1.3,1.3-2.8,1.9-4.6c0.3,0.2,0.7,0.3,1,0.5c-0.6,1.3-1.1,2.9-1.8,4.6L112.2,25.4z M112.8,16l0.6-0.8c0.9,0.5,1.6,1,2.1,1.5
		c-0.2,0.3-0.5,0.6-0.7,0.8C114.2,17,113.5,16.5,112.8,16z M115.4,18.6c1.2-1.1,2.1-2.2,2.7-3.5l1,0.2c-0.2,0.3-0.3,0.6-0.5,0.9h5.3
		v0.9c-0.6,0.9-1.4,1.6-2.5,2.2c1.2,0.5,2.6,0.7,4.1,0.8c-0.2,0.4-0.3,0.7-0.5,1.1c-1.9-0.3-3.5-0.7-4.7-1.3
		c-1.3,0.6-2.9,1.1-4.8,1.5c-0.1-0.3-0.3-0.6-0.5-0.9c1.6-0.2,3-0.6,4.3-1.1c-0.7-0.5-1.3-1-1.8-1.6c-0.5,0.6-1,1.1-1.5,1.6
		C116,19.1,115.7,18.9,115.4,18.6z M116.8,21.4h7.1v4.4h-1v-0.7h-5v0.7h-1V21.4z M122.9,22.3h-5v1.9h5V22.3z M122.9,17.1h-4.6
		c0.6,0.7,1.3,1.3,2.2,1.8C121.4,18.4,122.2,17.8,122.9,17.1z"/>
	<path id="XMLID_97_" class="st2" d="M58.3,31.8h1.1l1.1,5.3l0.9-3.4h0.9l0.9,3.4l1.1-5.3h1.1L64,38.4h-1l-1-3.6l-1,3.6h-1
		L58.3,31.8z"/>
	<path id="XMLID_99_" class="st2" d="M65.6,31.8h1.1l1.1,5.3l0.9-3.4h0.9l0.9,3.4l1.1-5.3h1.1l-1.5,6.6h-1l-1-3.6l-1,3.6h-1
		L65.6,31.8z"/>
	<path id="XMLID_101_" class="st2" d="M72.8,31.8h1.1l1.1,5.3l0.9-3.4h0.9l0.9,3.4l1.1-5.3H80l-1.5,6.6h-1l-1-3.6l-1,3.6h-1
		L72.8,31.8z"/>
	<path id="XMLID_103_" class="st2" d="M82.9,36.6h1.5v1.8h-1.5V36.6z"/>
	<path id="XMLID_105_" class="st2" d="M93.4,34.7v3.7h-1.1v-1c-0.2,0.4-0.5,0.7-0.9,0.9s-0.8,0.3-1.3,0.3c-0.7,0-1.2-0.2-1.6-0.6
		S88,37.1,88,36.5c0-0.7,0.2-1.3,0.7-1.7s1.2-0.6,2.2-0.6h1.4v-0.2c0-0.5-0.1-0.9-0.4-1.1s-0.7-0.4-1.3-0.4c-0.4,0-0.7,0.1-1.1,0.2
		s-0.7,0.3-1.1,0.5v-1.1c0.4-0.2,0.8-0.3,1.1-0.3s0.7-0.1,1.1-0.1c0.5,0,1,0.1,1.4,0.2s0.7,0.4,0.9,0.7c0.1,0.2,0.3,0.4,0.3,0.7
		S93.4,34.1,93.4,34.7z M91.4,35.1H91c-0.6,0-1.1,0.1-1.4,0.3s-0.5,0.5-0.5,1c0,0.4,0.1,0.7,0.4,0.9s0.6,0.3,1,0.3
		c0.6,0,1.1-0.2,1.4-0.6s0.5-1,0.5-1.7v-0.2H91.4z"/>
	<path id="XMLID_108_" class="st2" d="M98.1,30v1.9h2.4v0.8h-2.4v3.6c0,0.5,0.1,0.8,0.3,1s0.5,0.3,1,0.3h1.2v0.9h-1.3
		c-0.8,0-1.4-0.2-1.7-0.5S97,37,97,36.2v-3.6h-1.8v-0.8H97V30H98.1z"/>
	<path id="XMLID_110_" class="st2" d="M106.7,32.7v-3.4h1.1v9.1h-1.1v-0.8c-0.2,0.3-0.4,0.6-0.7,0.7s-0.6,0.3-1,0.3
		c-0.8,0-1.4-0.3-1.9-0.9s-0.7-1.5-0.7-2.5c0-1.1,0.2-1.9,0.7-2.5s1.1-0.9,1.9-0.9c0.4,0,0.7,0.1,1,0.3S106.5,32.4,106.7,32.7z
		 M103.5,35.1c0,0.8,0.1,1.5,0.4,1.9s0.7,0.6,1.2,0.6s0.9-0.2,1.2-0.6s0.4-1.1,0.4-1.9c0-0.8-0.1-1.5-0.4-1.9s-0.7-0.6-1.2-0.6
		s-0.9,0.2-1.2,0.6S103.5,34.3,103.5,35.1z"/>
	<path id="XMLID_113_" class="st2" d="M113.5,33.7c0.6,0.2,1,0.4,1.3,0.8s0.5,0.9,0.5,1.5c0,0.8-0.3,1.4-0.8,1.9s-1.3,0.7-2.2,0.7
		c-0.4,0-0.8,0-1.2-0.1s-0.8-0.2-1.2-0.3V37c0.4,0.2,0.8,0.4,1.2,0.5s0.8,0.2,1.2,0.2c0.6,0,1.1-0.1,1.5-0.4s0.5-0.7,0.5-1.3
		c0-0.5-0.2-0.9-0.5-1.2s-0.8-0.4-1.4-0.4h-0.9v-1h0.9c0.5,0,1-0.1,1.3-0.4s0.5-0.6,0.5-1c0-0.4-0.1-0.8-0.4-1s-0.7-0.4-1.2-0.4
		c-0.3,0-0.7,0-1.1,0.1s-0.8,0.2-1.2,0.4v-1.1c0.5-0.1,0.9-0.2,1.3-0.3s0.7-0.1,1-0.1c0.9,0,1.5,0.2,2,0.6s0.8,1,0.8,1.7
		c0,0.5-0.1,0.9-0.4,1.2S114,33.6,113.5,33.7z"/>
	<path id="XMLID_115_" class="st2" d="M119,36.6h1.5v1.8H119V36.6z"/>
	<path id="XMLID_117_" class="st2" d="M129.6,38.1c-0.3,0.2-0.6,0.3-0.9,0.4s-0.6,0.1-0.9,0.1c-1,0-1.8-0.3-2.4-0.9
		s-0.9-1.5-0.9-2.5s0.3-1.9,0.9-2.5s1.4-0.9,2.4-0.9c0.3,0,0.6,0,0.9,0.1s0.6,0.2,0.9,0.4v1.1c-0.3-0.3-0.6-0.4-0.9-0.6
		s-0.6-0.2-1-0.2c-0.7,0-1.2,0.2-1.6,0.7s-0.5,1.1-0.5,1.9c0,0.8,0.2,1.4,0.5,1.9s0.9,0.7,1.6,0.7c0.4,0,0.7-0.1,1-0.2
		s0.6-0.3,0.8-0.5V38.1z"/>
	<path id="XMLID_119_" class="st2" d="M136.7,34.3v4.1h-1.1v-4.1c0-0.6-0.1-1-0.3-1.3s-0.5-0.4-1-0.4c-0.5,0-0.9,0.2-1.2,0.5
		s-0.4,0.9-0.4,1.5v3.7h-1.1v-6.6h1.1v1c0.2-0.4,0.5-0.7,0.8-0.9s0.7-0.3,1.2-0.3c0.7,0,1.2,0.2,1.5,0.7S136.7,33.4,136.7,34.3z"/>
</g>
</svg>
